# xmcd CD database file
#
# Track frame offsets:
#	150
#	13783
#	25795
#	37301
#	46381
#	55284
#	65912
#	77635
#	87319
#	98256
#	106563
#	120008
#	130897
#	143656
#	156233
#	163549
#	180503
#	190368
#	203940
#	214615
#
# Disc length: 2994 seconds
#
# Revision: 2
# Processed by: cddbd v1.5.1PL2 Copyright (c) Steve Scherf et al.
# Submitted via: CDex 1.51
#
DISCID=070bb014
DTITLE=Various Artist - Country Gold 8
DYEAR=1900
DGENRE=
TTITLE0=Barbara Fairchild - Every Flower Has To Have A Seed
TTITLE1=Faron Young - Are You Sincere
TTITLE2=Carl Perkins - Standing In The Need Of Love
TTITLE3=Bob Wills - Ole San Antonio Rose
TTITLE4=Canway Twitty - The Road That I Walk
TTITLE5=Faron Young - Memphis
TTITLE6=Freddy Fender - Sweet Summer Day
TTITLE7=Ferlin Husky - Wings Of A Dove
TTITLE8=George Jones - Don't You Ever Get Tired Of
TTITLE9=Hayt Axton - Bony Fingers
TTITLE10=Johnny Paycheck - She's Mine
TTITLE11=Willie Nelson - December Day
TTITLE12=Tex Ritter - Dallas Darling
TTITLE13=Terri Gibbs - Letter From An Old Friend
TTITLE14=Ronnie McDowell - I Dream Of Women Like You
TTITLE15=Kathy Mattea - Some One Is Falling In Love
TTITLE16=Mickey Gilley - I Miss You So
TTITLE17=Oak Ridge Quartet - My Heavenly Father
TTITLE18=Patsy Cline - Stop Look And Listen
TTITLE19=Willie Nelson - Pride Wins Again
EXTD=
EXTT0=
EXTT1=
EXTT2=
EXTT3=
EXTT4=
EXTT5=
EXTT6=
EXTT7=
EXTT8=
EXTT9=
EXTT10=
EXTT11=
EXTT12=
EXTT13=
EXTT14=
EXTT15=
EXTT16=
EXTT17=
EXTT18=
EXTT19=
PLAYORDER=
